<?xml version="1.0" encoding="UTF-8"?>
<svg width="160px" height="48px" viewBox="0 0 160 48" version="1.1" xmlns="http://www.w3.org/2000/svg" xmlns:xlink="http://www.w3.org/1999/xlink">
    <title>品牌/logo+文字</title>
    <defs>
        <linearGradient x1="99.8218355%" y1="87.7679215%" x2="30.0328856%" y2="28.7796296%" id="linearGradient-1">
            <stop stop-color="#00FF2E" offset="0%"></stop>
            <stop stop-color="#00BDFF" offset="100%"></stop>
        </linearGradient>
    </defs>
    <g id="品牌/logo+文字" stroke="none" stroke-width="1" fill="none" fill-rule="evenodd">
        <g id="logo" transform="translate(1.000000, -10.000000)">
            <rect id="矩形" x="0" y="0" width="158" height="68"></rect>
            <g id="夸克网盘" transform="translate(0.000000, 18.133333)">
                <g id="编组-14" fill-rule="nonzero">
                    <g id="椭圆形">
                        <path d="M19.9059725,0 C26.5824545,0 32.1704413,5.07187559 32.919666,11.7220837 L32.9110719,11.6531123 L32.9904986,11.6831726 C36.8244933,13.1621765 39.4588216,16.8401517 39.5844871,21.0543837 L39.587824,21.199912 L39.5891648,21.3684629 C39.5891648,27.0928228 34.9954451,31.7333333 29.3288046,31.7333333 L26.4127841,31.7333333 C25.194606,31.7333333 24.2070776,30.7357461 24.2070776,29.5051598 C24.2070776,28.2745883 25.1945942,27.2770129 26.4127625,27.2770129 L29.3288046,27.2770639 C32.5591313,27.2770639 35.1778285,24.6316931 35.1778285,21.3684629 C35.1778285,18.1052326 32.5591313,15.4598618 29.3288046,15.4598618 C28.9552327,15.4598618 28.6638309,15.4835152 28.4545991,15.5308219 C28.5466397,15.0707144 28.59266,14.3042531 28.59266,13.231438 C28.59266,8.38504619 24.7034975,4.45626939 19.9059725,4.45626939 C15.2513193,4.45626939 11.4288878,8.1629518 11.2276028,12.8437995 L11.2098002,13.2577951 L10.81192,13.1569701 L7.14362723,12.227405 L6.89044793,12.163248 L6.89044793,11.7573963 L6.89259407,11.7191752 C7.63256889,5.15118056 13.1025402,0.109656804 19.6921952,0.00173844402 L19.9032619,0 L19.9059725,0 Z" id="路径" fill="#0D53FF"></path>
                        <path d="M10.2225129,11.0728966 C15.8682509,11.0728966 20.4450258,15.6962898 20.4450258,21.3995343 C20.4450258,22.0142877 20.391603,22.6232416 20.286113,23.2211152 C20.2419586,23.4713639 20.1887229,23.719434 20.1265579,23.9649171 C19.8249403,25.155974 18.6246242,25.8745165 17.4455769,25.5698266 C16.2665295,25.2651368 15.5552322,24.0525945 15.8568499,22.8615376 C15.892073,22.722445 15.9222486,22.5818314 15.947293,22.43989 C16.0073352,22.099596 16.0378242,21.7520586 16.0378242,21.3995343 C16.0378242,18.1551126 13.4342207,15.5249892 10.2225129,15.5249892 C7.01080514,15.5249892 4.40720158,18.1551126 4.40720158,21.3995343 C4.40720158,24.643956 7.01080514,27.2740794 10.2225129,27.2740794 L19.9486834,27.2740794 C21.1656985,27.2740794 22.1522841,28.2707143 22.1522841,29.5001257 C22.1522841,30.7295371 21.1656985,31.726172 19.9486834,31.726172 L10.2225129,31.726172 C4.57677492,31.726172 0,27.1027788 0,21.3995343 C0,15.6962898 4.57677492,11.0728966 10.2225129,11.0728966 Z" id="路径" fill="url(#linearGradient-1)"></path>
                    </g>
                </g>
                <path d="M61.1290329,6.30537619 L62.5928951,6.30537619 C63.5507403,8.03280245 64.5627743,9.40110989 65.6270891,10.4106793 L57.4556393,10.4106793 C58.8401263,9.28914707 60.0643364,7.92045881 61.1290329,6.30537619 L61.1290329,6.30537619 Z M73.1276657,10.2636805 C70.5823161,9.78612487 68.2983705,7.92312459 67.2519914,6.30537619 L72.7014055,6.30537619 C72.8517605,6.30537619 72.973113,6.18275025 72.973113,6.03118155 L72.973113,2.87794315 C72.973113,2.72637444 72.8517605,2.6037485 72.7014055,2.6037485 L63.1252433,2.6037485 C63.1782873,2.49178569 63.2492671,2.31241669 63.3381826,2.06526069 C63.4988411,1.6756758 63.6236281,1.36339856 63.71407,1.12690568 C63.7182678,1.11776586 63.7259,1.10976852 63.7300977,1.10024787 L63.8262638,0.867944076 C63.9369312,0.586132914 63.9231932,0.463887802 63.6297339,0.463887802 L59.5609907,0.463887802 C59.4373485,0.463887802 59.3243915,0.534340593 59.2690578,0.64592258 L59.1129786,0.960865594 C58.8351654,1.55114573 58.5489566,2.09953502 58.2543525,2.6037485 L50.620975,2.6037485 C50.4710017,2.6037485 50.3492676,2.72637444 50.3492676,2.87794315 L50.3492676,6.03118155 C50.3492676,6.18275025 50.4710017,6.30537619 50.620975,6.30537619 L55.8284473,6.30537619 C54.6076717,7.93835763 52.6385557,9.22859576 49.971472,10.2945274 C49.8474483,10.3440348 49.7638753,10.4647566 49.7638753,10.5991881 L49.7638753,13.9995826 C49.7638753,14.1884722 49.9474305,14.3255695 50.1264064,14.2688265 C51.8486197,13.7265304 53.4311631,13.0456137 54.8740366,12.2275997 L54.8740366,13.66179 C54.8740366,13.8156437 54.9976788,13.9401737 55.1503235,13.9401737 L68.385378,13.9401737 C68.5380226,13.9401737 68.6616648,13.8156437 68.6616648,13.66179 L68.6616648,12.5303563 C69.9568547,13.1815685 71.4230065,13.6953027 73.060502,14.0704162 C73.2329905,14.1100221 73.3989916,13.9759714 73.3989916,13.797364 L73.3989916,10.5866209 C73.3989916,10.4262932 73.2837448,10.2930041 73.1276657,10.2636805 L73.1276657,10.2636805 Z M83.165578,17.3615136 L94.821142,17.3615136 L94.821142,13.259257 L83.165578,13.259257 L83.165578,17.3615136 Z M100.829617,27.0668615 L97.5614951,27.0680039 L95.2103858,27.0680039 L95.2103858,21.0105873 L98.7876132,21.0105873 C98.9375866,21.0105873 99.0593207,20.8879613 99.0593207,20.7363926 L99.0593207,9.88399712 C99.0593207,9.73280924 98.9375866,9.6101833 98.7876132,9.6101833 L91.2374271,9.6101833 L91.2374271,6.79245251 L100.483877,6.79245251 C100.63385,6.79245251 100.755584,6.66982657 100.755584,6.51863869 L100.755584,3.28161859 C100.755584,3.13043071 100.63385,3.00780478 100.483877,3.00780478 L91.2374271,3.00780478 L91.2374271,2.40990812 L91.2374271,0.925829612 C91.2374271,0.774641732 91.115693,0.652015794 90.9657197,0.652015794 L87.1209825,0.652015794 C86.9710091,0.652015794 86.849275,0.774641732 86.849275,0.925829612 L86.849275,2.40990812 L86.849275,3.00780478 L77.6818189,3.00780478 C77.5318455,3.00780478 77.4101114,3.13043071 77.4101114,3.28161859 L77.4101114,6.51863869 C77.4101114,6.66982657 77.5318455,6.79245251 77.6818189,6.79245251 L86.849275,6.79245251 L86.849275,9.6101833 L79.1991067,9.6101833 C79.0491333,9.6101833 78.9273992,9.73280924 78.9273992,9.88399712 L78.9273992,20.7363926 C78.9273992,20.8879613 79.0491333,21.0105873 79.1991067,21.0105873 L83.1575641,21.0105873 C83.1575641,24.4486834 80.3668383,26.5980648 77.4082033,27.2218576 C77.2555587,27.2542278 77.1441281,27.3852319 77.1441281,27.542513 L77.1441281,31.2532805 C77.1441281,31.4235097 77.2952463,31.5575604 77.4627738,31.5335684 C83.4536948,30.6713786 87.1610517,26.6056813 87.4697755,21.0105873 L90.9000825,21.0105873 L90.9000825,30.5506567 C90.9000825,30.7639192 91.0718077,30.937195 91.2836022,30.937195 L100.829617,30.937195 C100.979972,30.937195 101.101706,30.8145691 101.101706,30.6630004 L101.101706,27.3410561 C101.101706,27.1894874 100.979972,27.0668615 100.829617,27.0668615 L100.829617,27.0668615 Z M72.9941016,15.9855896 L50.0886268,15.9855896 C49.9382718,15.9855896 49.8169193,16.1085964 49.8169193,16.2597842 L49.8169193,19.4130226 C49.8169193,19.5642105 49.9382718,19.6868365 50.0886268,19.6868365 L54.1394343,19.6868365 L52.4508028,25.5351797 C52.4000485,25.7103596 52.5305596,25.8859204 52.7118252,25.8859204 L66.4876233,25.8859204 L65.0256692,30.9238661 C64.9749148,31.0994269 65.105426,31.2749876 65.2866916,31.2749876 L69.0467109,31.2749876 C69.1909601,31.2749876 69.3184184,31.1790195 69.3592509,31.0392564 L71.8721634,22.4546791 C71.9232994,22.2791183 71.7927882,22.1031768 71.6115227,22.1031768 L57.700634,22.1031768 L58.3940223,19.6868365 L72.9941016,19.6868365 C73.144075,19.6868365 73.2658091,19.5642105 73.2658091,19.4130226 L73.2658091,16.2597842 C73.2658091,16.1085964 73.144075,15.9855896 72.9941016,15.9855896 L72.9941016,15.9855896 Z M129.002859,1.25562484 C129.152832,1.25562484 129.274566,1.37825077 129.274566,1.52943865 L129.274566,30.7703933 C129.274566,30.9215812 129.152832,31.0442071 129.002859,31.0442071 L123.508033,31.0442071 C123.35806,31.0442071 123.236325,30.9215812 123.236325,30.7703933 L123.236325,27.7123614 C123.236325,27.5611735 123.35806,27.4385475 123.508033,27.4385475 L125.343203,27.4385475 L125.343203,4.8273909 L109.647135,4.8273909 L109.647135,30.8389419 C109.647135,30.9905107 109.525401,31.1131366 109.375428,31.1131366 L105.987098,31.1131366 C105.837125,31.1131366 105.715391,30.9905107 105.715391,30.8389419 L105.715391,1.52943865 C105.715391,1.37825077 105.837125,1.25562484 105.987098,1.25562484 L129.002859,1.25562484 Z M117.731578,6.88537403 C117.904829,6.88537403 118.033814,7.04608256 117.997561,7.21631173 L116.631391,13.6892095 L119.18361,14.823309 L120.351723,9.28914707 C120.383779,9.13757837 120.516961,9.02866216 120.67075,9.02866216 L123.857589,9.02866216 C124.030459,9.02866216 124.159444,9.18937069 124.123572,9.35998069 L122.645972,16.3614648 L124.109834,17.0122962 C124.228134,17.0648502 124.304456,17.1829062 124.304456,17.3131487 L124.304456,20.7291569 C124.304456,20.9271864 124.102965,21.0597138 123.923226,20.9801212 L121.86405,20.0649966 L120.731427,25.43388 C120.699371,25.5858296 120.566189,25.6943649 120.412399,25.6943649 L117.225561,25.6943649 C117.052691,25.6943649 116.923706,25.5340372 116.959577,25.3634272 L118.402069,18.5268408 L115.850232,17.3927413 L114.605415,23.2905919 C114.57336,23.4425414 114.440177,23.5510768 114.286388,23.5510768 L111.099549,23.5510768 C110.926679,23.5510768 110.797694,23.3903683 110.833566,23.2201391 L112.38787,15.8542047 L110.76106,15.1313971 C110.64276,15.0788431 110.566056,14.9607871 110.566056,14.8305447 L110.566056,11.4145364 C110.566056,11.2168877 110.76831,11.0839795 110.947668,11.163953 L113.169411,12.1510537 L114.225712,7.14585894 C114.258149,6.99390941 114.39095,6.88537403 114.544739,6.88537403 L117.731578,6.88537403 Z M155.429082,19.7656674 C155.579056,19.7656674 155.70079,19.8886742 155.70079,20.0398621 L155.70079,27.7923348 L157.728293,27.7923348 C157.878266,27.7923348 158,27.9153416 158,28.0665294 L158,30.8221856 C158,30.9733735 157.878266,31.0963803 157.728293,31.0963803 L133.231879,31.0963803 C133.081905,31.0963803 132.960171,30.9733735 132.960171,30.8221856 L132.960171,28.0665294 C132.960171,27.9153416 133.081905,27.7923348 133.231879,27.7923348 L135.286857,27.7923348 L135.286857,20.0398621 C135.286857,19.8886742 135.408592,19.7656674 135.558565,19.7656674 L155.429082,19.7656674 Z M149.856789,27.7927156 L151.961759,27.7927156 L151.961759,22.8633052 L149.856789,22.8633052 L149.856789,27.7927156 Z M144.482934,27.7927156 L146.449761,27.7927156 L146.449761,22.8633052 L144.482934,22.8633052 L144.482934,27.7927156 Z M139.02627,27.7927156 L141.075906,27.7927156 L141.075906,22.8633052 L139.02627,22.8633052 L139.02627,27.7927156 Z M146.2269,0.26928577 C146.402441,0.26928577 146.532189,0.434945034 146.491356,0.607078339 L146.155538,2.01879993 L155.173784,2.01879993 C155.323758,2.01879993 155.445492,2.14142587 155.445492,2.29299457 L155.445492,9.32075562 L157.566871,9.32075562 C157.716844,9.32075562 157.838578,9.44338156 157.838578,9.59456944 L157.838578,12.1784731 C157.838578,12.3300418 157.716844,12.4526678 157.566871,12.4526678 L155.445492,12.4526678 L155.445492,18.4194479 C155.445492,18.5706358 155.323758,18.6932617 155.173784,18.6932617 L149.730858,18.6932617 C149.580884,18.6932617 149.45915,18.5706358 149.45915,18.4194479 L149.45915,15.938748 C149.45915,15.7871793 149.580884,15.6645534 149.730858,15.6645534 L151.373696,15.6645534 L151.373696,12.4526678 L140.034488,12.4526678 L139.135411,18.7850407 L135.198324,18.7850407 C135.031941,18.7850407 134.904864,18.635757 134.929669,18.4700977 L135.825693,12.4526678 L133.559683,12.4526678 C133.40971,12.4526678 133.287976,12.3300418 133.287976,12.1784731 L133.287976,9.59456944 C133.287976,9.44338156 133.40971,9.32075562 133.559683,9.32075562 L136.239742,9.32075562 L136.239742,2.29299457 C136.239742,2.14142587 136.361094,2.01879993 136.511449,2.01879993 L141.541854,2.01879993 L141.897897,0.521392512 C141.933006,0.373632065 142.063898,0.26928577 142.215017,0.26928577 L146.2269,0.26928577 Z M146.109363,13.5041281 C146.246743,13.5041281 146.371149,13.5909564 146.418469,13.7215797 C146.877166,14.9920148 147.243895,16.2891078 147.518655,17.6124778 C147.553763,17.782707 147.42287,17.9437963 147.25,17.9437963 L144.113153,17.9437963 C143.957837,17.9437963 143.825418,17.8348801 143.794507,17.6814073 C143.571264,16.5693957 143.245368,15.2951523 142.8172,13.8590578 C142.764919,13.6831162 142.893904,13.5041281 143.075932,13.5041281 L146.109363,13.5041281 Z M151.373696,5.39748726 L140.311156,5.39748726 L140.311156,9.32075562 L144.233742,9.32075562 C144.050187,8.53473098 143.806719,7.79935618 143.503719,6.75360827 C143.452583,6.57804753 143.582713,6.40134432 143.76436,6.40134432 L146.77642,6.40134432 C146.913037,6.40134432 147.035153,6.4877918 147.082473,6.61689177 C147.402645,7.48860225 147.699921,8.26015551 147.972773,9.32075562 L151.373696,9.32075562 L151.373696,5.39748726 Z" id="Fill-1备份" fill="#151515"></path>
            </g>
        </g>
    </g>
</svg>